<svg enable-background="new 0 0 523.438 166.055" height="254.37436" viewBox="0 0 543.43739 254.37437" width="543.43738" xmlns="http://www.w3.org/2000/svg"><path d="m307.43202 163.292c-18.051-6.698-91.506-40.523-160.87-72.832-69.291003-32.28-134.170003-62.929-134.174003-62.929-2.082-.983-2.9709996-3.466-1.987-5.549.981-2.079 3.466-2.97 5.548-1.988.037.02 16.216 7.661 41.09 19.354 24.874 11.695 58.412003 27.425 93.046003 43.557 69.192 32.242 143.093 66.232 160.248 72.574 20.188 7.443 37.922 12.204 80.113 12.239 30.434 0 73.407-2.559 138.443-8.568 2.288-.211 4.319 1.474 4.531 3.765.208 2.29-1.478 4.324-3.771 4.536-65.152 6.014-108.313 8.602-139.204 8.605-.143 0-.28 0-.423 0-42.393-.001-61.964-5.092-82.59-12.764z" fill="#b3b3b3"/><g transform="translate(10.000017 10)"><g><path d="m45.824 145.899v-138.394h101.277c27.03 0 44.924 12.184 44.924 35.789 0 17.513-8.947 26.27-19.226 29.506 12.564 3.996 21.702 15.039 21.702 31.22 0 25.319-17.516 41.88-44.545 41.88h-104.132zm41.692-60.155v-20.37h59.774c13.707 0 20.179-4.758 20.179-16.751 0-14.658-11.613-16.943-29.507-16.943h-67.96v90.234h70.052c17.325 0 29.889-4.759 29.889-18.276 0-11.423-7.423-17.894-20.939-17.894z" fill="#0086bf"/><path d="m149.955 153.402h-104.131v-7.502h7.501-7.501v7.502h-7.504v-153.402h108.779c14.604.018 27.473 3.236 37.154 10.583 9.724 7.301 15.384 19.035 15.273 32.71.018 10.01-2.623 18.337-7.222 24.554-1.308 1.779-2.755 3.368-4.306 4.774 2.395 1.964 4.557 4.235 6.422 6.792 4.847 6.626 7.594 15.107 7.58 24.606.044 14.363-5.105 27.096-14.494 35.896-9.347 8.809-22.486 13.486-37.463 13.486-.028.001-.058.001-.088.001zm0-15.007c12.016-.018 21.114-3.62 27.266-9.402 6.125-5.814 9.736-14.02 9.777-24.973-.015-6.687-1.835-11.817-4.698-15.757-2.875-3.934-6.891-6.753-11.775-8.315l-22.267-7.085c-.322.007-.645.011-.97.012h-52.271v5.367h53.988c7.892 0 15.036 1.876 20.422 6.475 5.429 4.589 8.092 11.651 8.015 18.922.016 4.524-1.103 8.88-3.35 12.497-2.236 3.632-5.46 6.38-9.02 8.3-7.172 3.825-15.677 4.938-25.019 4.979h-77.553v-105.238h75.46c6.958.014 13.253.288 19.035 1.724 5.677 1.383 11.425 4.37 14.807 10.025 2.23 3.702 3.174 8.068 3.171 12.698-.005 3.663-.489 7.129-1.729 10.368-1.045 2.753-2.714 5.301-4.853 7.329l2.154-.677c3.906-1.243 7.213-3.358 9.68-6.692 2.445-3.351 4.276-8.156 4.297-15.657-.111-9.936-3.399-16.094-9.377-20.786-6.028-4.645-15.62-7.52-28.046-7.501l-93.773-.003v123.391h96.629zm-72.453-23.984h62.551c5.981.011 11.112-.651 14.744-1.85 3.688-1.218 5.575-2.753 6.528-4.306.647-1.077 1.099-2.388 1.113-4.618-.073-4.151-1.124-6.039-2.785-7.541-1.701-1.492-5.034-2.853-10.648-2.853h-61.49v-7.501h7.501-7.501v7.501h-7.504v-35.372h67.277c4.502.018 7.602-.643 9.234-1.431 1.634-.854 2.056-1.329 2.718-2.838.402-1.025.728-2.648.728-4.979-.01-2.704-.518-4.121-1.023-4.967-.526-.837-1.154-1.457-2.696-2.209-3.023-1.521-9.667-2.335-18.288-2.268h-60.459z" fill="#fff"/></g><g><path d="m251.22 145.899v-114.219h-52.54v-24.175h129.256v24.175h-52.539v114.22h-24.177z" fill="#0086bf"/><path d="m251.22 153.397v-7.499h7.501-7.501v7.499h-7.504l-.002-114.218h-52.538v-39.175h144.263v39.175h-52.541v114.218zm16.673-15.001v-114.221h52.538v-9.171h-114.251v9.171h52.542v114.222h9.171z" fill="#fff"/></g><g><path d="m340.11 145.899v-24.176h103.744c12.942 0 20.177-7.233 20.177-18.083 0-11.802-7.234-17.893-20.177-17.893h-63.58c-26.075 0-42.257-16.562-42.257-39.404 0-22.271 15.038-38.831 42.639-38.831h99.365v24.174h-99.365c-11.042 0-17.514 6.473-17.514 16.94 0 10.469 6.661 16.751 17.324 16.751h63.388c27.98 0 43.02 13.134 43.02 39.974 0 23.226-14.089 40.546-43.02 40.546h-103.744z" fill="#383431"/><path d="m443.854 153.397h-103.744v-7.499h7.498-7.498v7.499h-7.505v-39.176h111.249c5.118-.02 8.116-1.385 9.849-2.984 1.71-1.622 2.774-3.8 2.823-7.597-.071-4.45-1.162-6.342-2.67-7.727-1.55-1.385-4.646-2.668-10.002-2.668h-63.58c-14.603.028-27.235-4.711-36.097-13.218-8.89-8.476-13.698-20.511-13.666-33.685-.032-12.792 4.428-24.712 13.274-33.177 8.826-8.496 21.605-13.184 36.87-13.155h106.863v39.176h-106.862c-4.11.028-6.327 1.125-7.658 2.411-1.313 1.309-2.315 3.29-2.354 7.027.043 3.691 1.042 5.592 2.354 6.89 1.338 1.278 3.562 2.338 7.469 2.36h63.388c15.081-.007 27.896 3.536 37.065 11.888 9.185 8.367 13.511 20.865 13.455 35.59.022 13.078-4.037 25.357-12.824 34.248-8.729 8.882-21.678 13.796-37.497 13.796-.066.001-.135.001-.2.001zm-96.246-14.999 96.246-.004c13.017-.037 21.505-3.779 27.018-9.329 5.488-5.576 8.475-13.569 8.494-23.712-.052-12.118-3.246-19.606-8.572-24.519-5.35-4.923-14.046-7.951-26.939-7.956h-63.388c-6.76.022-13.199-2.056-17.858-6.541-4.686-4.459-7.014-10.932-6.972-17.712-.038-6.729 2.191-13.218 6.88-17.764 4.659-4.564 11.2-6.707 18.14-6.678h91.856v-9.174l-91.856.004c-12.341.026-20.88 3.617-26.474 8.971-5.574 5.382-8.632 12.875-8.667 22.358.035 9.665 3.317 17.334 9.038 22.85 5.746 5.486 14.244 9.029 25.721 9.049h63.58c7.58 0 14.573 1.767 19.88 6.38 5.34 4.606 7.87 11.665 7.799 19.018.048 7.05-2.504 13.916-7.652 18.62-5.117 4.73-12.205 6.982-20.026 6.965l-96.246-.006v9.18z" fill="#fff"/></g></g><path d="m55.824017 155.899v-138.388h101.270003c6.725 0 12.849.762 18.369 2.284 5.521 1.522 10.247 3.777 14.181 6.757 3.932 2.982 6.979 6.727 9.138 11.231 2.156 4.506 3.236 9.678 3.236 15.515 0 4.442-.508 8.313-1.524 11.611-1.016 3.302-2.412 6.125-4.187 8.47-1.777 2.349-3.84 4.316-6.186 5.901-2.351 1.589-4.792 2.761-7.329 3.521 6.344 2.032 11.545 5.711 15.609 11.042 4.06 5.33 6.092 12.057 6.092 20.177 0 6.348-1.047 12.087-3.142 17.226-2.093 5.142-5.076 9.552-8.945 13.23-3.873 3.683-8.566 6.505-14.087 8.471-5.52 1.969-11.644 2.951-18.369 2.951h-104.126003zm41.689-60.152v-20.368h59.772003c6.852 0 11.928-1.269 15.229-3.808 3.298-2.537 4.949-6.854 4.949-12.944 0-3.679-.7-6.63-2.093-8.851-1.4-2.22-3.398-3.933-5.998-5.141-2.602-1.205-5.71-1.999-9.328-2.378-3.617-.38-7.646-.571-12.087-.571h-67.958003v90.038h70.053003c4.311 0 8.309-.314 11.991-.944 3.679-.632 6.854-1.676 9.518-3.126 2.666-1.451 4.727-3.314 6.187-5.587 1.458-2.272 2.189-5.112 2.189-8.521 0-5.682-1.779-10.065-5.33-13.158-3.555-3.095-8.756-4.641-15.61-4.641z" fill="#0086bf" stroke="#0086bf"/><path d="m261.21702 155.899v-114.213h-52.537v-24.175h129.25v24.175h-52.537v114.213z" fill="#0086bf" stroke="#0086bf"/><path d="m350.11002 155.899v-24.176h103.744c12.942 0 20.177-7.233 20.177-18.083 0-11.802-7.234-17.893-20.177-17.893h-63.58c-26.075 0-42.257-16.562-42.257-39.404 0-22.271 15.038-38.831 42.639-38.831h99.365v24.174h-99.365c-11.042 0-17.514 6.473-17.514 16.94 0 10.469 6.661 16.751 17.324 16.751h63.388c27.98 0 43.02 13.134 43.02 39.974 0 23.226-14.089 40.546-43.02 40.546h-103.744z" fill="#383431"/><path d="m453.85102 156.731h-103.745v-.833h.834-.834v.833h-.833v-25.841l104.578-.003c12.63-.078 19.274-6.813 19.343-17.246-.095-11.396-6.648-16.95-19.343-17.064l-63.577.005c-13.212 0-24.009-4.204-31.487-11.369-7.479-7.16-11.61-17.254-11.604-28.868-.006-11.321 3.833-21.275 11.224-28.372 7.387-7.096 18.285-11.296 32.25-11.296h100.193v25.843h-100.194c-10.699.08-16.606 6.012-16.685 16.108.072 10.08 6.171 15.838 16.495 15.916h63.385c14.114 0 25.099 3.312 32.568 10.141 7.469 6.829 11.291 17.104 11.285 30.666.002 11.776-3.579 22.15-10.901 29.57-7.315 7.414-18.317 11.811-32.933 11.811-.006-.001-.012-.001-.019-.001zm0-1.667c28.566-.08 42.107-16.839 42.186-39.714-.107-26.477-14.46-39.019-42.186-39.139h-63.385c-5.49.004-10.059-1.625-13.238-4.684-3.188-3.054-4.927-7.495-4.923-12.899-.004-5.403 1.683-9.887 4.867-12.993 3.184-3.111 7.804-4.786 13.483-4.781h98.53v-22.513h-98.53c-27.253.072-41.748 16.131-41.81 38.002.049 22.417 15.713 38.514 41.428 38.571l63.577-.004c6.596 0 11.854 1.553 15.491 4.728 3.637 3.179 5.525 7.938 5.519 14.002.007 5.604-1.886 10.384-5.502 13.72-3.614 3.338-8.886 5.196-15.508 5.193h-102.91v22.511z" fill="#383431"/><text style="font-size:48.775272;font-family:Source Sans Pro;letter-spacing:0;word-spacing:0;fill:#0086bf;stroke-width:2.164839" x="51.705681" y="233.43846"><tspan fill="#0086bf" font-family="Source Sans Pro" font-size="48.774776" font-weight="600" stroke-width="2.164839" x="51.705681" y="233.43846">Blue Trading Systems</tspan></text></svg>